# File created by Blade
# Date/Time:  Thu Sep 25 15:55:53 2014
# Frame Rate: 120.000 fps
#------------------------------------------------------
:FULLY-SPECIFIED
:DEGREES
346
root -1.571622 32.714713 3.246830 7.702962 -3.480543 0.812106
Spine -8.909624 8.093159 -3.576722
Head -12.477017 -7.804477 14.512393
LeftShoulder -9.425204 25.626122 15.337872
LeftArm 26.053405 11.755432 -66.922301
LeftForeArm 10.644255 -0.000000 47.203727
LeftHand -28.744146 -0.000000 11.769816
LeftHandThumb1 -26.253704 0.000000 33.147579
RightShoulder -17.348825 8.730743 -22.148438
RightArm 2.624561 -13.491627 56.405887
RightForeArm -27.655031 -0.000000 79.777547
RightHand -3.334455 0.000000 -1.048425
RightHandThumb1 -24.326973 -0.000000 -32.862282
LeftUpLeg -4.218583 13.852830 -0.278791
LeftLeg 1.327463 -0.000000 -0.000000
LeftFoot -12.908283 13.078041 -25.264959
LeftToeBase 1.955128 -0.000000 -0.000000
RightUpLeg -11.721431 -0.937496 -0.123325
RightLeg 22.209462 -0.000000 -0.000000
RightFoot -17.403227 -7.948680 -6.389842
RightToeBase -2.717101 -0.000000 0.000000
347
root -1.564313 32.710307 3.205902 7.807816 -3.587834 0.635236
Spine -8.799237 8.122910 -3.231339
Head -12.652589 -7.654788 14.461290
LeftShoulder -9.306033 25.186404 15.605734
LeftArm 25.905388 11.253150 -67.163001
LeftForeArm 11.004409 -0.000000 48.741496
LeftHand -28.701300 -0.000000 11.760248
LeftHandThumb1 -26.253704 0.000000 33.147579
RightShoulder -17.256404 8.710931 -22.065762
RightArm 2.722189 -14.684906 56.626644
RightForeArm -27.638203 0.000000 79.472138
RightHand -3.111016 0.000000 -0.948143
RightHandThumb1 -24.326973 -0.000000 -32.862282
LeftUpLeg -4.167458 13.895390 -0.146907
LeftLeg 0.910551 -0.000000 -0.000000
LeftFoot -12.911614 13.139357 -25.371315
LeftToeBase 2.088963 -0.000000 -0.000000
RightUpLeg -11.872657 -0.932087 -0.044090
RightLeg 22.181566 -0.000000 -0.000000
RightFoot -17.502857 -7.427179 -6.005902
RightToeBase -2.641087 -0.000000 0.000000
348
root -1.549775 32.704578 3.160860 7.939371 -3.641387 0.541915
Spine -8.723340 8.128531 -2.967048
Head -12.824464 -7.547768 14.416167
LeftShoulder -9.256967 25.283896 15.678551
LeftArm 26.306959 10.411780 -67.253149
LeftForeArm 10.800125 -0.000000 50.430661
LeftHand -28.547595 -0.000000 12.036596
LeftHandThumb1 -26.253704 0.000000 33.147579
RightShoulder -17.233927 8.660415 -21.964961
RightArm 2.845112 -15.890921 56.844459
RightForeArm -27.647033 0.000000 79.179298
RightHand -3.818758 -0.000000 -1.188802
RightHandThumb1 -24.326973 -0.000000 -32.862282
LeftUpLeg -4.185922 13.756018 -0.110191
LeftLeg 0.539490 -0.000000 -0.000000
LeftFoot -12.955178 13.331906 -25.469166
LeftToeBase 2.291521 -0.000000 -0.000000
RightUpLeg -12.113751 -1.003846 -0.042092
RightLeg 22.263611 -0.000000 -0.000000
RightFoot -17.595392 -6.908728 -5.749327
RightToeBase -2.857703 -0.000000 0.000000
349
root -1.538005 32.696829 3.111641 8.119625 -3.650619 0.477651
Spine -8.715070 8.107813 -2.751146
Head -13.005969 -7.490854 14.382229
LeftShoulder -9.149488 24.782378 15.914359
LeftArm 26.178704 9.878204 -67.454161
LeftForeArm 10.870664 -0.000000 52.099774
LeftHand -28.620911 -0.000000 11.795590
LeftHandThumb1 -26.253704 0.000000 33.147579
RightShoulder -17.231464 8.559916 -21.892768
RightArm 2.882914 -16.898952 57.178100
RightForeArm -27.751539 0.000000 78.898075
RightHand -4.386775 0.000000 -1.365704
RightHandThumb1 -24.326973 -0.000000 -32.862282
LeftUpLeg -4.296502 13.541821 -0.106790
LeftLeg 0.231331 -0.000000 -0.000000
LeftFoot -13.057202 13.546095 -25.645918
LeftToeBase 2.472470 -0.000000 -0.000000
RightUpLeg -12.422852 -1.083479 -0.055478
RightLeg 22.401064 -0.000000 -0.000000
RightFoot -17.695042 -6.437112 -5.510983
RightToeBase -2.906140 -0.000000 0.000000
350
root -1.529508 32.689485 3.069977 8.213608 -3.599150 0.424378
Spine -8.608793 8.062624 -2.544948
Head -13.201322 -7.481265 14.404963
LeftShoulder -9.030449 24.521764 16.069663
LeftArm 26.300837 9.206171 -67.590174
LeftForeArm 10.833245 0.000000 53.873615
LeftHand -28.772490 -0.000000 11.778441
LeftHandThumb1 -26.253704 0.000000 33.147579
RightShoulder -17.175607 8.465660 -21.732706
RightArm 2.788424 -17.590659 57.465448
RightForeArm -27.681777 -0.000000 78.603652
RightHand -3.785150 -0.000000 -0.767720
RightHandThumb1 -24.326973 -0.000000 -32.862282
LeftUpLeg -4.344539 13.352089 -0.088066
LeftLeg -0.012662 -0.000000 0.000000
LeftFoot -13.134787 13.697603 -25.737364
LeftToeBase 2.698154 -0.000000 -0.000000
RightUpLeg -12.627450 -1.192398 -0.059611
RightLeg 22.552021 -0.000000 -0.000000
RightFoot -17.829144 -6.010938 -5.168923
RightToeBase -2.900447 -0.000000 0.000000
351
root -1.520822 32.681678 3.021474 8.355828 -3.511651 0.417801
Spine -8.561531 7.962624 -2.377730
Head -13.370777 -7.470406 14.407476
LeftShoulder -8.934705 24.287512 16.181683
LeftArm 26.467600 8.491211 -67.704961
LeftForeArm 10.894475 0.000000 55.652319
LeftHand -28.649174 0.000000 11.495980
LeftHandThumb1 -26.253704 0.000000 33.147579
RightShoulder -17.196496 8.217422 -21.635446
RightArm 2.872991 -18.222730 57.893599
RightForeArm -27.927306 -0.000000 78.147505
RightHand -3.635733 -0.000000 -0.657141
RightHandThumb1 -24.326973 -0.000000 -32.862282
LeftUpLeg -4.478817 13.083153 -0.122993
LeftLeg -0.225231 -0.000000 0.000000
LeftFoot -13.196816 13.914055 -25.768417
LeftToeBase 2.850105 -0.000000 -0.000000
RightUpLeg -12.914259 -1.316640 -0.090740
RightLeg 22.747363 -0.000000 -0.000000
RightFoot -17.984184 -5.695150 -4.940676
RightToeBase -2.855277 -0.000000 0.000000
352
root -1.520591 32.674161 2.972544 8.525563 -3.419026 0.433448
Spine -8.567845 7.878832 -2.301019
Head -13.541607 -7.479530 14.491016
LeftShoulder -8.798017 24.067598 16.361605
LeftArm 26.668992 7.765500 -67.818331
LeftForeArm 10.804593 -0.000000 57.421381
LeftHand -28.580653 -0.000000 10.951461
LeftHandThumb1 -26.253704 0.000000 33.147579
RightShoulder -17.220442 7.988397 -21.508100
RightArm 2.786615 -18.870990 58.382522
RightForeArm -28.362903 -0.000000 77.816586
RightHand -3.950455 -0.000000 -0.825339
RightHandThumb1 -24.326973 -0.000000 -32.862282
LeftUpLeg -4.655860 12.802666 -0.163718
LeftLeg -0.410821 -0.000000 0.000000
LeftFoot -13.246495 14.106774 -25.878458
LeftToeBase 2.923463 -0.000000 -0.000000
RightUpLeg -13.228514 -1.451591 -0.112900
RightLeg 22.935754 -0.000000 -0.000000
RightFoot -18.145271 -5.436870 -4.738345
RightToeBase -2.796276 -0.000000 0.000000
